# xmcd
#
# Track frame offsets:
#	150
#	19902
#	38879
#	59038
#	76083
#	93767
#	111842
#	129681
#	149513
#	167775
#
# Disc length: 2503 seconds
#
# Revision: 4
# Processed by: cddbd v1.5.2PL0 Copyright (c) Steve Scherf et al.
# Submitted via: EZCDAudioConverter 3.1.7.1
#
DISCID=8709c50a
DTITLE=Ελευθερία Αρβανιτάκη - Εκπομπή
DYEAR=2001
DGENRE=entexno
TTITLE0=\nΣτα Νερά Να Περπατήσω
TTITLE1=Αυτό Το Φιλί
TTITLE2=Ιστορία Παλιά
TTITLE3=Καρφωτή
TTITLE4=Το Ποτήρι Σου Ψηλά
TTITLE5=Λόγια Που Φύλαγα
TTITLE6=Για Των Ματιών Σου Το Χρώμα
TTITLE7=Φωτιά και Χιόνι
TTITLE8=Κάτω Στο Μεγάλο Ύπνο
TTITLE9=Εγώ Το Μέλλον Νοσταλγώ
EXTD=
EXTT0=
EXTT1=
EXTT2=
EXTT3=
EXTT4=
EXTT5=
EXTT6=
EXTT7=
EXTT8=
EXTT9=
PLAYORDER=
